<svg xmlns="http://www.w3.org/2000/svg" width="1600" height="980" viewBox="0 0 1600 980" fill="none">
  <defs>
    <linearGradient id="bg" x1="0" y1="0" x2="1600" y2="980" gradientUnits="userSpaceOnUse">
      <stop stop-color="#F7F2E9"/>
      <stop offset="1" stop-color="#EEF4FB"/>
    </linearGradient>
    <style>
      .title { font: 700 34px "SF Pro Display", "Inter", sans-serif; fill: #0f2438; }
      .subtitle { font: 500 16px "SF Pro Text", "Inter", sans-serif; fill: #49627c; }
      .section { font: 700 13px "SF Pro Text", "Inter", sans-serif; fill: #35526c; letter-spacing: .16em; text-transform: uppercase; }
      .label { font: 700 22px "SF Pro Display", "Inter", sans-serif; fill: #10253a; }
      .body { font: 500 14px "SF Pro Text", "Inter", sans-serif; fill: #4d6175; }
      .bodySmall { font: 500 13px "SF Pro Text", "Inter", sans-serif; fill: #4d6175; }
      .note { font: 600 14px "SF Pro Text", "Inter", sans-serif; fill: #27435f; }
      .noteSmall { font: 600 13px "SF Pro Text", "Inter", sans-serif; fill: #27435f; }
      .line { stroke: #3e5e79; stroke-width: 2.4; stroke-linecap: round; stroke-linejoin: round; }
      .dash { stroke-dasharray: 9 9; }
    </style>
    <marker id="arrow" viewBox="0 0 10 10" refX="9" refY="5" markerWidth="8" markerHeight="8" orient="auto-start-reverse">
      <path d="M 0 0 L 10 5 L 0 10 z" fill="#3e5e79"/>
    </marker>
  </defs>

  <rect width="1600" height="980" rx="36" fill="url(#bg)"/>

  <rect x="52" y="42" width="1496" height="104" rx="28" fill="#FFFFFF" opacity="0.86"/>
  <text x="80" y="92" class="title">Infrastructure as Words • Runtime Architecture</text>
  <text x="80" y="122" class="subtitle">Static SPA, shared auth, Lambda orchestration, Bedrock generation, durable run history, artifact downloads, and observability.</text>

  <rect x="52" y="182" width="308" height="738" rx="32" fill="#FCF8F1" stroke="#D9CBB9"/>
  <text x="80" y="228" class="section">User Surface</text>

  <rect x="80" y="258" width="252" height="110" rx="28" fill="#E8F2FF" stroke="#7DA7D6"/>
  <text x="108" y="302" class="label">Browser</text>
  <text x="108" y="332" class="body">Signed-out landing and signed-in workbench.</text>
  <text x="108" y="356" class="body">React Flow diagrams, history, and admin UI.</text>

  <rect x="80" y="420" width="252" height="116" rx="28" fill="#EEF8F0" stroke="#78AE8C"/>
  <text x="108" y="464" class="label">CloudFront + S3 SPA</text>
  <text x="108" y="494" class="body">Immutable static Next.js export.</text>
  <text x="108" y="518" class="body">Served at the dev and prod app domains.</text>

  <rect x="80" y="588" width="252" height="128" rx="28" fill="#F7EEDC" stroke="#BF9A57"/>
  <text x="108" y="626" class="label">Shared Cognito</text>
  <text x="108" y="654" class="label">Hosted UI</text>
  <text x="108" y="684" class="bodySmall">One hosted auth domain</text>
  <text x="108" y="706" class="bodySmall">for both environments.</text>
  <text x="108" y="730" class="noteSmall">auth.infrastructure-as-words.com</text>

  <rect x="80" y="764" width="252" height="118" rx="28" fill="#EEE8FB" stroke="#8D79C0"/>
  <text x="108" y="808" class="label">User flow</text>
  <text x="108" y="838" class="body">Sign in → request infra → review diagram.</text>
  <text x="108" y="862" class="body">Download zip → revisit history.</text>

  <rect x="410" y="182" width="510" height="738" rx="32" fill="#FAFBFC" stroke="#D6DCE3"/>
  <text x="438" y="228" class="section">Application Runtime</text>

  <rect x="438" y="260" width="454" height="114" rx="28" fill="#EAF4FF" stroke="#719FD4"/>
  <text x="468" y="304" class="label">API Gateway</text>
  <text x="468" y="334" class="body">JWT-protected HTTP API.</text>
  <text x="468" y="358" class="body">Health, submissions, history, run detail, and admin settings.</text>

  <rect x="438" y="426" width="454" height="162" rx="28" fill="#EAF7F1" stroke="#67AA8E"/>
  <text x="468" y="470" class="label">Lambda API Service</text>
  <text x="468" y="500" class="body">Strict validation and auth gating.</text>
  <text x="468" y="524" class="body">Async generation orchestration, artifact packaging,</text>
  <text x="468" y="548" class="body">cost tracking, SSM-backed admin checks, and logs.</text>
  <text x="468" y="580" class="note">Code: lambda.ts + generation-service.ts</text>

  <rect x="438" y="640" width="454" height="190" rx="28" fill="#F6F0E5" stroke="#B89458"/>
  <text x="468" y="684" class="label">Bedrock Generation Layer</text>
  <text x="468" y="714" class="body">Governance-aware prompt shaping from settings and</text>
  <text x="468" y="738" class="body">module metadata, plus output normalization.</text>
  <text x="468" y="762" class="body">Budget reservation, cost accounting, and</text>
  <text x="468" y="786" class="body">Terraform starter generation.</text>
  <text x="468" y="816" class="note">Code: bedrock-generator.ts</text>

  <rect x="970" y="182" width="276" height="738" rx="32" fill="#FCFBF8" stroke="#D9D1C5"/>
  <text x="998" y="228" class="section">State And Control</text>

  <rect x="998" y="258" width="220" height="116" rx="26" fill="#EFF8F1" stroke="#74A586"/>
  <text x="1024" y="302" class="label">DynamoDB</text>
  <text x="1024" y="332" class="body">Run summary and run detail.</text>
  <text x="1024" y="356" class="body">Governance settings and monthly budget state.</text>

  <rect x="998" y="426" width="220" height="110" rx="26" fill="#EDF5FF" stroke="#709FD6"/>
  <text x="1024" y="470" class="label">S3 Artifacts</text>
  <text x="1024" y="500" class="body">Terraform zip archives.</text>
  <text x="1024" y="524" class="body">Presigned download links.</text>

  <rect x="998" y="588" width="220" height="126" rx="26" fill="#FAEFE8" stroke="#C88F6A"/>
  <text x="1024" y="626" class="label">SSM Parameter</text>
  <text x="1024" y="654" class="label">Store</text>
  <text x="1024" y="686" class="bodySmall">Admin email and sensitive</text>
  <text x="1024" y="708" class="bodySmall">runtime config.</text>
  <text x="1024" y="730" class="bodySmall">Kept outside source control.</text>

  <rect x="998" y="750" width="220" height="132" rx="26" fill="#F0ECFF" stroke="#8D79C0"/>
  <text x="1024" y="794" class="label">Module catalog</text>
  <text x="1024" y="824" class="bodySmall">Terraform module metadata</text>
  <text x="1024" y="846" class="bodySmall">and docs reused for</text>
  <text x="1024" y="868" class="bodySmall">governance and prompting.</text>

  <rect x="1296" y="182" width="252" height="738" rx="32" fill="#FBFCFE" stroke="#D6DCE3"/>
  <text x="1324" y="228" class="section">Observability</text>

  <rect x="1324" y="258" width="196" height="136" rx="26" fill="#ECECEC" stroke="#818181"/>
  <text x="1348" y="302" class="label">CloudWatch</text>
  <text x="1348" y="332" class="bodySmall">Structured logs, Lambda logs,</text>
  <text x="1348" y="354" class="bodySmall">and API access logs.</text>
  <text x="1348" y="376" class="bodySmall">Alarms and dashboards for the app.</text>

  <rect x="1324" y="444" width="196" height="118" rx="26" fill="#F3ECFF" stroke="#8D79C0"/>
  <text x="1348" y="488" class="label">SNS alerts</text>
  <text x="1348" y="518" class="bodySmall">Environment notifications</text>
  <text x="1348" y="540" class="bodySmall">for key alarms.</text>

  <rect x="1324" y="614" width="196" height="188" rx="26" fill="#EEF3FF" stroke="#719FD4"/>
  <text x="1348" y="658" class="label">Admin visibility</text>
  <text x="1348" y="688" class="bodySmall">The admin page links to</text>
  <text x="1348" y="710" class="bodySmall">dashboards, alarms, logs,</text>
  <text x="1348" y="732" class="bodySmall">and notifications in</text>
  <text x="1348" y="754" class="bodySmall">the AWS console.</text>

  <path d="M332 313 H438" class="line" marker-end="url(#arrow)"/>
  <path d="M332 478 H438" class="line" marker-end="url(#arrow)"/>
  <path d="M332 649 H438" class="line dash" marker-end="url(#arrow)"/>
  <path d="M892 318 H998" class="line" marker-end="url(#arrow)"/>
  <path d="M892 498 H998" class="line" marker-end="url(#arrow)"/>
  <path d="M892 694 H998" class="line" marker-end="url(#arrow)"/>
  <path d="M1218 320 H1324" class="line" marker-end="url(#arrow)"/>
  <path d="M1218 651 H1324" class="line dash" marker-end="url(#arrow)"/>
  <path d="M1110 374 V426" class="line" marker-end="url(#arrow)"/>
  <path d="M1110 536 V588" class="line" marker-end="url(#arrow)"/>
  <path d="M1110 714 V750" class="line" marker-end="url(#arrow)"/>

  <rect x="438" y="852" width="1082" height="44" rx="22" fill="#FFFFFF" opacity="0.9"/>
  <text x="468" y="880" class="noteSmall">Production: infrastructure-as-words.com + api.infrastructure-as-words.com • Development: dev.infrastructure-as-words.com + api.dev.infrastructure-as-words.com</text>
</svg>
